<svg width="140" height="150" viewBox="0 0 140 150" fill="none" xmlns="http://www.w3.org/2000/svg">
<rect width="140" height="150" rx="25" fill="#D8D8D8"/>
<g filter="url(#filter0_i_16_33)">
<path d="M86.3089 88.5606C86.3089 88.5606 52.527 55.5275 56.2805 41.266C60.0341 27.0046 75.0482 25.5035 86.3089 41.266C94.5667 25.5035 111.082 27.0049 115.586 41.266C120.091 55.5271 86.3089 88.5606 86.3089 88.5606Z" fill="#840000"/>
</g>
<g filter="url(#filter1_i_16_33)">
<path d="M47.5156 120.093C47.5156 120.093 21.3146 94.685 24.2258 83.7157C27.137 72.7463 38.782 71.5918 47.5156 83.7157C53.9204 71.5918 66.7298 72.7466 70.2232 83.7157C73.7167 94.6847 47.5156 120.093 47.5156 120.093Z" fill="#840000"/>
</g>
<defs>
<filter id="filter0_i_16_33" x="55.9894" y="30" width="61.0106" height="60.5605" filterUnits="userSpaceOnUse" color-interpolation-filters="sRGB">
<feFlood flood-opacity="0" result="BackgroundImageFix"/>
<feBlend mode="normal" in="SourceGraphic" in2="BackgroundImageFix" result="shape"/>
<feColorMatrix in="SourceAlpha" type="matrix" values="0 0 0 0 0 0 0 0 0 0 0 0 0 0 0 0 0 0 127 0" result="hardAlpha"/>
<feOffset dx="1" dy="3"/>
<feGaussianBlur stdDeviation="1"/>
<feComposite in2="hardAlpha" operator="arithmetic" k2="-1" k3="1"/>
<feColorMatrix type="matrix" values="0 0 0 0 0 0 0 0 0 0 0 0 0 0 0 0 0 0 0.55 0"/>
<feBlend mode="normal" in2="shape" result="effect1_innerShadow_16_33"/>
</filter>
<filter id="filter1_i_16_33" x="24" y="75.0503" width="47.5439" height="47.0425" filterUnits="userSpaceOnUse" color-interpolation-filters="sRGB">
<feFlood flood-opacity="0" result="BackgroundImageFix"/>
<feBlend mode="normal" in="SourceGraphic" in2="BackgroundImageFix" result="shape"/>
<feColorMatrix in="SourceAlpha" type="matrix" values="0 0 0 0 0 0 0 0 0 0 0 0 0 0 0 0 0 0 127 0" result="hardAlpha"/>
<feOffset dx="1" dy="3"/>
<feGaussianBlur stdDeviation="1"/>
<feComposite in2="hardAlpha" operator="arithmetic" k2="-1" k3="1"/>
<feColorMatrix type="matrix" values="0 0 0 0 0 0 0 0 0 0 0 0 0 0 0 0 0 0 0.55 0"/>
<feBlend mode="normal" in2="shape" result="effect1_innerShadow_16_33"/>
</filter>
</defs>
</svg>
